<?xml version="1.0" encoding="UTF-8"?>
<!--
  与 Stitch 设计稿一致：Material Symbols Outlined「event」24dp
  来源：google/material-design-icons symbols/android/event/materialsymbolsoutlined/event_24px.xml
-->
<svg xmlns="http://www.w3.org/2000/svg" width="24" height="24" viewBox="0 0 960 960" fill="#5a6157">
  <path
    d="M580,720Q538,720 509,691Q480,662 480,620Q480,578 509,549Q538,520 580,520Q622,520 651,549Q680,578 680,620Q680,662 651,691Q622,720 580,720ZM200,880Q167,880 143.5,856.5Q120,833 120,800L120,240Q120,207 143.5,183.5Q167,160 200,160L240,160L240,80L320,80L320,160L640,160L640,80L720,80L720,160L760,160Q793,160 816.5,183.5Q840,207 840,240L840,800Q840,833 816.5,856.5Q793,880 760,880L200,880ZM200,800L760,800Q760,800 760,800Q760,800 760,800L760,400L200,400L200,800Q200,800 200,800Q200,800 200,800ZM200,320L760,320L760,240Q760,240 760,240Q760,240 760,240L200,240Q200,240 200,240Q200,240 200,240L200,320ZM200,320L200,240Q200,240 200,240Q200,240 200,240L200,240Q200,240 200,240Q200,240 200,240L200,320L200,320Z"
  />
</svg>
